<?xml version="1.0" encoding="UTF-8" standalone="no"?>
<svg
   width="320"
   height="325"
   viewBox="0 0 84.666657 85.989574"
   version="1.1"
   id="svg1"
   xmlns="http://www.w3.org/2000/svg"
   xmlns:svg="http://www.w3.org/2000/svg"
   xmlns:rdf="http://www.w3.org/1999/02/22-rdf-syntax-ns#"
   xmlns:cc="http://creativecommons.org/ns#"
   xmlns:dc="http://purl.org/dc/elements/1.1/">
  <title
     id="title1">D^3 Logo</title>
  <defs
     id="defs1">
    <linearGradient
       x1="309.39999"
       y1="333.25"
       x2="437.56"
       y2="333.25"
       gradientUnits="userSpaceOnUse"
       spreadMethod="pad"
       id="linearGradient8">
      <stop
         style="stop-opacity:1;stop-color:#3eb1c7;"
         offset="0"
         id="stop7" />
      <stop
         style="stop-opacity:1;stop-color:#144ca0;"
         offset="1"
         id="stop8" />
    </linearGradient>
    <linearGradient
       x1="385.38"
       y1="378.42999"
       x2="456.25"
       y2="378.42999"
       gradientUnits="userSpaceOnUse"
       spreadMethod="pad"
       id="linearGradient11">
      <stop
         style="stop-opacity:1;stop-color:#98519c;"
         offset="0"
         id="stop9" />
      <stop
         style="stop-opacity:1;stop-color:#bc1054;"
         offset="0.47"
         id="stop10" />
      <stop
         style="stop-opacity:1;stop-color:#931a69;"
         offset="1"
         id="stop11" />
    </linearGradient>
    <linearGradient
       x1="387.35999"
       y1="330.35999"
       x2="529.78003"
       y2="330.35999"
       gradientUnits="userSpaceOnUse"
       spreadMethod="pad"
       id="linearGradient13">
      <stop
         style="stop-opacity:1;stop-color:#204198;"
         offset="0"
         id="stop12" />
      <stop
         style="stop-opacity:1;stop-color:#654a9b;"
         offset="1"
         id="stop13" />
    </linearGradient>
    <linearGradient
       x1="294.09"
       y1="268.17999"
       x2="386.34"
       y2="268.17999"
       gradientUnits="userSpaceOnUse"
       spreadMethod="pad"
       id="linearGradient15">
      <stop
         style="stop-opacity:1;stop-color:#c9c9ca;"
         offset="0"
         id="stop14" />
      <stop
         style="stop-opacity:1;stop-color:#3e3a39;"
         offset="1"
         id="stop15" />
    </linearGradient>
  </defs>
  <g
     id="g15"
     transform="matrix(0.26458333,0,0,0.26458333,-103.00281,-71.39705)"
     style="display:inline">
    <g
       id="layer-Pr20"
       style="display:inline">
      <path
         id="path8"
         d="m 309.5419,376.1232 c 28.1421,-24.4678 43.5535,-49.1587 58.4575,-79.1686 -10.656,5.3326 -21.312,5.6311 -31.968,4.9958 l 5.1604,-14.4501 c 13.5684,-0.3204 25.3123,-2.568 37.5565,-9.0678 2.5526,4.8427 5.4239,9.6007 8.6148,14.2733 4.3994,6.4426 9.4068,12.7233 15.0253,18.8408 9.8419,10.716 21.5595,20.9321 35.1706,30.643 -9.0453,8.1564 -22.7625,16.2732 -39.4829,22.4819 -4.0621,1.5083 -8.3013,2.9041 -12.6938,4.1607 -13.987,4.0008 -29.5285,6.5883 -45.8518,6.8984 -6.3766,4.1145 -12.9025,8.3256 -19.1294,12.3434 l -11.0004,-11.5557 z m 86.4017,-41.7807 c -5.7387,-7.8514 -11.4412,-13.1017 -16.4659,-17.0184 7.3664,10.1149 -6.0313,25.0577 -21.3588,36.8482 29.113,-12.2009 41.9083,-14.2433 37.8247,-19.8298"
         transform="matrix(1.3333333,0,0,-1.3333333,0,793.7008)"
         style="fill:url(#linearGradient8);fill-rule:evenodd;stroke:#231916;stroke-width:0.75;stroke-dasharray:none;stroke-opacity:1" />
      <path
         id="path11"
         d="m 418.2086,379.7521 c 13.3021,-3.5924 25.1218,-8.4988 35.6956,-14.5083 l 2.3459,12.3194 c -13.1391,6.5029 -27.6267,11.4004 -43.6532,14.6185 -5.8102,-9.5017 -19.3125,-16.9072 -27.2146,-23.3495 4.3925,-1.2566 8.6317,-2.6524 12.6938,-4.1607 6.0763,4.3568 12.8815,8.1768 20.1325,15.0806"
         transform="matrix(1.3333333,0,0,-1.3333333,0,793.7008)"
         style="fill:url(#linearGradient11);fill-rule:evenodd;stroke:#231916;stroke-width:0.75;stroke-dasharray:none;stroke-opacity:1" />
      <path
         id="path13"
         d="m 456.2501,377.5632 -2.3459,-12.3194 28.5029,7.0824 -15.1654,-41.7493 30.0008,7.3313 c -11.0798,-17.7253 -15.2473,-22.2718 -25.3222,-37.6679 l -44.8242,12.3511 c -6.7924,0.898 -15.7666,0.9522 -24.7077,-1.0448 -5.6185,-6.1175 -10.6259,-12.3982 -15.0253,-18.8408 8.9192,3.2321 18.3028,5.072 28.349,4.9235 25.8837,-5.5539 43.2434,-11.5611 63.9034,-26.0751 14.012,27.5454 18.5735,38.6663 50.1682,62.9949 -2.1153,5.3759 -16.0305,13.0833 -25.2752,16.5887 l -15.5457,-3.653 c 5.2849,13.8594 7.3888,24.1389 17.0518,41.6746 z"
         transform="matrix(1.3333333,0,0,-1.3333333,0,793.7008)"
         style="fill:url(#linearGradient13);fill-rule:evenodd;stroke:#231916;stroke-width:0.75;stroke-dasharray:none;stroke-opacity:1" />
      <path
         id="path15"
         d="M 385.5733,164.5044 307.3578,380.878 c -1.6087,4.4513 -5.1523,6.7743 -9.6018,5.1673 -4.449,-1.6067 -4.8679,-3.6 -1.1327,-14.7217 l 67.987,-202.4425 c 6.7555,-20.1155 12.2763,-19.2759 17.0926,-18.9839 4.7225,0.2863 5.4791,10.156 3.8704,14.6072"
         transform="matrix(1.3333333,0,0,-1.3333333,0,793.7008)"
         style="fill:url(#linearGradient15);fill-rule:evenodd;stroke:#231916;stroke-width:0.75;stroke-dasharray:none;stroke-opacity:1" />
    </g>
  </g>
  <metadata
     id="metadata1">
    <rdf:RDF>
      <cc:Work
         rdf:about="">
        <dc:title>D^3 Logo</dc:title>
        <dc:creator>
          <cc:Agent>
            <dc:title>D^3CTF Organizers</dc:title>
          </cc:Agent>
        </dc:creator>
      </cc:Work>
    </rdf:RDF>
  </metadata>
</svg>
