<?xml version="1.0" encoding="UTF-8" standalone="no"?>
<svg
   xmlns:dc="http://purl.org/dc/elements/1.1/"
   xmlns:cc="http://creativecommons.org/ns#"
   xmlns:rdf="http://www.w3.org/1999/02/22-rdf-syntax-ns#"
   xmlns:svg="http://www.w3.org/2000/svg"
   xmlns="http://www.w3.org/2000/svg"
   xmlns:xlink="http://www.w3.org/1999/xlink"
   xmlns:sodipodi="http://sodipodi.sourceforge.net/DTD/sodipodi-0.dtd"
   xmlns:inkscape="http://www.inkscape.org/namespaces/inkscape"
   width="1280"
   height="800"
   viewBox="0 0 338.66666 211.66667"
   version="1.1"
   id="svg-mainSVG"
   class="mainSVG"
   inkscape:version="1.0.1 (3bc2e813f5, 2020-09-07)"
   sodipodi:docname="class-flag-animated.svg">
  <title
     id="title41">D2303 Class Flag</title>
  <defs
     id="defs2">
    <polygon
       id="liquid" />
    <filter
       inkscape:collect="always"
       style="color-interpolation-filters:sRGB"
       id="filter1481"
       x="-5.0865182e-06"
       width="1.0000102"
       y="-4.5440392e-06"
       height="1.0000091">
      <feGaussianBlur
         inkscape:collect="always"
         stdDeviation="0.00080043971"
         id="feGaussianBlur1483" />
    </filter>
    <clipPath
       id="liquid-mask">
      <path
         style="fill:none;stroke:#000000;stroke-width:0.264583px;stroke-linecap:butt;stroke-linejoin:miter;stroke-opacity:1"
         d="m 150.25709,38.963282 v 70.800088 l -31.18364,40.62787 h 99.92674 L 185.88496,109.59223 V 38.963282 Z"
         id="path128"
         inkscape:label="liquid-mask" />
    </clipPath>
  </defs>
  <sodipodi:namedview
     id="base"
     pagecolor="#ffffff"
     bordercolor="#666666"
     borderopacity="1.0"
     inkscape:pageopacity="0.0"
     inkscape:pageshadow="2"
     inkscape:zoom="1.0292332"
     inkscape:cx="384.37072"
     inkscape:cy="132.93605"
     inkscape:document-units="px"
     inkscape:current-layer="svg-mainSVG"
     inkscape:document-rotation="0"
     showgrid="true"
     units="px"
     inkscape:window-width="1366"
     inkscape:window-height="715"
     inkscape:window-x="-8"
     inkscape:window-y="-8"
     inkscape:window-maximized="1"
     showguides="false">
    <inkscape:grid
       type="xygrid"
       id="grid56" />
  </sodipodi:namedview>
  <metadata
     id="metadata5">
    <rdf:RDF>
      <cc:Work
         rdf:about="">
        <dc:format>image/svg+xml</dc:format>
        <dc:type
           rdf:resource="http://purl.org/dc/dcmitype/StillImage" />
        <dc:title>D2303 Class Flag</dc:title>
        <cc:license
           rdf:resource="http://creativecommons.org/licenses/by-nc-sa/4.0/" />
        <dc:date />
        <dc:creator>
          <cc:Agent>
            <dc:title>Rong &quot;Mantle&quot; Bao</dc:title>
          </cc:Agent>
        </dc:creator>
        <dc:publisher>
          <cc:Agent>
            <dc:title>Rong &quot;Mantle&quot; Bao</dc:title>
          </cc:Agent>
        </dc:publisher>
        <dc:source>class-flag-animated.svg</dc:source>
        <dc:language>Neutral</dc:language>
        <dc:subject>
          <rdf:Bag />
        </dc:subject>
        <dc:contributor>
          <cc:Agent>
            <dc:title>Rong &quot;Mantle&quot; Bao, Xu Wong, Han Hu, Qifeng Cheng et al.</dc:title>
          </cc:Agent>
        </dc:contributor>
      </cc:Work>
      <cc:License
         rdf:about="http://creativecommons.org/licenses/by-nc-sa/4.0/">
        <cc:permits
           rdf:resource="http://creativecommons.org/ns#Reproduction" />
        <cc:permits
           rdf:resource="http://creativecommons.org/ns#Distribution" />
        <cc:requires
           rdf:resource="http://creativecommons.org/ns#Notice" />
        <cc:requires
           rdf:resource="http://creativecommons.org/ns#Attribution" />
        <cc:prohibits
           rdf:resource="http://creativecommons.org/ns#CommercialUse" />
        <cc:permits
           rdf:resource="http://creativecommons.org/ns#DerivativeWorks" />
        <cc:requires
           rdf:resource="http://creativecommons.org/ns#ShareAlike" />
      </cc:License>
    </rdf:RDF>
  </metadata>
  <g
     inkscape:label="layer-bg"
     id="layer1"
     style="display:inline"
     inkscape:groupmode="layer"
     sodipodi:insensitive="true">
    <rect
       style="display:inline;fill:#2d76e7;fill-opacity:0.839216;fill-rule:evenodd;stroke-width:0.264583"
       id="rect-top"
       width="338.66666"
       height="6.6145835"
       x="0"
       y="10.583333"
       inkscape:label="rect-top" />
    <rect
       style="display:inline;fill:#2d76e7;fill-opacity:1;fill-rule:evenodd;stroke-width:0.264583"
       id="rect-bottom"
       width="338.66666"
       height="6.6145835"
       x="0"
       y="194.46875"
       inkscape:label="rect-bottom" />
    <path
       style="display:inline;fill:#2d76e7;fill-opacity:1;stroke-width:0.377976"
       d="M 0.21761906,98.540349 V 61.309696 H 169.36196 338.5063 V 98.540349 135.771 h -52.72768 -52.72767 v -5.19829 -5.19829 L 221.1447,111.49015 209.23845,97.605875 v -13.2344 -13.2344 h -41.1994 -41.19941 v 13.198663 13.198663 l -11.90625,13.890019 -11.90625,13.89001 v 5.22829 5.22828 H 51.62238 0.21761906 Z"
       id="path-mid"
       inkscape:label="path-mid" />
  </g>
  <g
     inkscape:groupmode="layer"
     id="layer3"
     inkscape:label="layer-flsk"
     style="display:inline"
     sodipodi:insensitive="true">
    <g
       id="flask"
       style="display:inline"
       inkscape:label="flask"
       sodipodi:insensitive="true">
      <path
         style="display:inline;fill:#2d76e7;stroke:none;stroke-width:0.687023"
         d="m 389.97197,594.20981 c 1.67912,-2.17271 36.78689,-46.91876 78.01725,-99.43567 l 74.96431,-95.4853 V 258.95353 118.6182 h 92.06107 92.06107 v 140.35653 140.35652 l 77.29008,99.08556 c 42.50954,54.49706 77.29008,99.23357 77.29008,99.41447 0,0.1809 -111.31578,0.32891 -247.36841,0.32891 H 386.91903 Z M 830.0146,570.06683 c -0.12595,-0.33684 -28.59446,-35.50241 -63.26335,-78.14571 L 703.71689,414.38785 V 280.24348 146.09912 H 635.35811 566.99934 V 280.44051 414.7819 l -58.91222,76.7035 c -32.40172,42.18692 -59.31619,77.26383 -59.80995,77.94869 -0.86617,1.2014 5.83361,1.24518 190.53435,1.24518 111.79341,0 191.33682,-0.25478 191.20308,-0.61244 z"
         id="path-flask-border"
         transform="scale(0.26458333)"
         inkscape:label="path-flask-border"
         sodipodi:insensitive="true" />
      <path
         style="display:inline;opacity:0.5;mix-blend-mode:normal;fill:#ffffff;fill-opacity:1;stroke:none;stroke-width:1.37405;filter:url(#filter1481)"
         d="m 459.84897,569.19082 -9.80758,-0.78298 58.92972,-76.77708 58.92973,-76.77708 V 281.05824 147.2628 h 67.32824 67.32825 v 133.47202 133.47202 l 10.78697,13.20737 c 5.93283,7.26406 34.09382,41.95928 62.57997,77.1005 l 51.79301,63.89313 -20.32806,0.85314 c -25.32053,1.06268 -334.13148,1.00034 -347.54025,-0.0702 z"
         id="path-flask-fill"
         transform="scale(0.26458333)"
         inkscape:label="path-flask-fill"
         sodipodi:insensitive="true" />
      <g
         id="drip"
         transform="matrix(0.2,0,0,0.2,0,22.225008)"
         style="display:inline">
        <polygon
           class="liquid"
           points="14.11,18.92 15.79,13.72 12.33,3.7 7.89,0 3.3,4.06 0,13.72 1.86,18.5 7.93,21.59 "
           id="polygon25" />
        <polygon
           points="6.71,6.76 5.22,7.96 4.88,6.08 6.37,4.88 "
           fill="#ffffff"
           opacity="0.5"
           id="polygon27" />
      </g>
      <rect
         id="droplet"
         class="liquid"
         x="166.42291"
         y="127"
         width="1.7999604"
         height="1.8000001"
         style="display:inline;stroke-width:0.299997" />
      <g
         clip-path="url(#liquid-mask)"
         id="g27"
         inkscape:label="flask-liquid"
         style="display:inline">
        <use
           xlink:href="#liquid"
           x="200"
           y="0"
           class="poly darkLiquid"
           opacity="0.3"
           id="dark-liquid"
           width="100%"
           height="100%"
           inkscape:label="dark-liquid" />
        <use
           xlink:href="#liquid"
           class="poly"
           y="0"
           id="bright-liquid"
           width="100%"
           height="100%"
           inkscape:label="bright-liquid"
           x="0" />
      </g>
    </g>
  </g>
  <g
     inkscape:groupmode="layer"
     id="layer2"
     inkscape:label="layer-dp"
     style="display:inline"
     sodipodi:insensitive="true">
    <g
       id="pipette1"
       class="glass"
       fill="none"
       stroke="#aaccfb"
       stroke-miterlimit="10"
       stroke-width="4"
       transform="scale(0.16666675)">
      <polygon
         class="liquid"
         stroke="none"
         points="27.91,104.62 27.91,111.41 23.32,114 18.73,111.41 18.73,104.62 12.36,94.68 12.36,79.01 34.28,79.01 34.28,94.68 "
         fill="#5299f9"
         id="polygon30" />
      <rect
         id="level"
         class="liquid"
         stroke="none"
         x="12.36"
         y="48.049999"
         width="22"
         height="32"
         fill="#5299f9" />
      <g
         opacity="0.5"
         id="g34">
        <polyline
           points="12.07 28.65 12.07 11.51 12.07 6.83 14.07 4 15.84 2 19.94 2 27.21 2 31.06 2 32.57 4 34.57 7.16 34.57 12.01 34.57 28.65"
           fill="none"
           stroke="#003459"
           stroke-miterlimit="10"
           stroke-width="4"
           id="polyline28" />
        <polygon
           points="2,32.19 2,31.53 4.59,28.95 42.05,28.95 44.64,31.53 44.64,36.43 42.05,39.01 4.59,39.01 2,36.43 "
           fill="none"
           stroke="#003459"
           stroke-miterlimit="10"
           stroke-width="4"
           id="polygon34" />
        <polyline
           points="34.28 39.01 34.28 94.68 27.91 104.62 27.91 111.41 23.32 114.41 18.73 111.41 18.73 104.62 12.36 94.68 12.36 39.01"
           fill="none"
           stroke="#003459"
           stroke-miterlimit="10"
           stroke-width="4"
           id="polyline32" />
      </g>
      <g
         id="pipetteShine"
         opacity="0.25"
         stroke="none">
        <polygon
           points="18.25,9.3 21.73,7.79 21.63,11.58 18.15,13.1 "
           fill="#ffffff"
           id="polygon71" />
        <polygon
           points="17.88,90.03 17.86,90.03 16.87,89.04 16.87,47.02 18.87,47.02 18.87,89.04 "
           fill="#ffffff"
           id="polygon73" />
      </g>
    </g>
  </g>
  <g
     id="layer4"
     inkscape:label="layer-fg"
     style="display:inline"
     sodipodi:insensitive="true">
    <path
       style="display:inline;opacity:1;fill:#2d76e7;fill-opacity:1;stroke:none;stroke-width:1.65172;stroke-miterlimit:4;stroke-dasharray:none;stroke-opacity:1"
       d="m 385.67347,493.52751 v -19.43195 h 249.21466 249.21466 v 19.43195 19.43194 H 634.88813 385.67347 Z"
       id="path-fg"
       transform="scale(0.26458333)"
       inkscape:label="path-fg"
       sodipodi:insensitive="true" />
    <text
       xml:space="preserve"
       style="font-style:normal;font-variant:normal;font-weight:normal;font-stretch:normal;font-size:22.5778px;line-height:1.25;font-family:'REEJI-JinGang-ExtraBoldGB1.0';-inkscape-font-specification:'REEJI-JinGang-ExtraBoldGB1.0, Normal';font-variant-ligatures:normal;font-variant-caps:normal;font-variant-numeric:normal;font-variant-east-asian:normal;fill:#2d76e7;fill-opacity:1;stroke:none;stroke-width:0.264583"
       x="134.95222"
       y="182.51805"
       id="text-label"
       inkscape:label="text-label"
       sodipodi:insensitive="true"><tspan
         sodipodi:role="line"
         id="tspan355"
         x="134.95222"
         y="182.51805"
         style="font-style:normal;font-variant:normal;font-weight:normal;font-stretch:normal;font-size:22.5778px;font-family:'REEJI-JinGang-ExtraBoldGB1.0';-inkscape-font-specification:'REEJI-JinGang-ExtraBoldGB1.0, Normal';font-variant-ligatures:normal;font-variant-caps:normal;font-variant-numeric:normal;font-variant-east-asian:normal;fill:#2d76e7;fill-opacity:1;stroke-width:0.264583">D2303</tspan></text>
  </g>
</svg>
