<?xml version="1.0"?>
<svg xmlns="http://www.w3.org/2000/svg" viewBox="0 0 208 162">
	<path fill="#FAFAFA" d="M206.65 103.08C206.65 46.53 160.81.69 104.26.69S1.87 46.53 1.87 103.08c0 .31.02.61.02.92h204.75c0-.31.01-.61.01-.92z"></path>
	<path fill="#F4F4F4" d="M188.18 161.75c11.47-16.38 18.26-36.28 18.45-57.75H1.89c.19 21.47 6.98 41.37 18.45 57.75h167.84z"></path>
	<path fill="#BDBFC1" d="M186.31 151.54l-3.96-16.89V53.73c0-7.09-5.77-12.86-12.86-12.86H38.3c-7.09 0-12.86 5.77-12.86 12.86v80.85l-4.03 16.89c-.35 1.39.49 2.78 1.88 3.13 1.39.35 2.78-.49 3.13-1.88l4.1-17.17c.07-.21.07-.42.07-.63v-5.7h146.62v5.7c0 .14 0 .35.07.56l4.03 17.17c.28 1.18 1.32 2.02 2.5 2.02.21 0 .42-.07.56-.07 1.39-.28 2.29-1.67 1.94-3.06zm-9.1-97.81v28.02h-22.96V46.01h15.24c4.24 0 7.72 3.47 7.72 7.72zM85.93 81.74H56.88V46.01h29.05v35.73zm3.4-35.73h29.05v35.73H89.33V46.01zm-3.4 40.88v37.19H56.88V86.89h29.05zm3.4 0h29.05v37.19H89.33V86.89zm32.46 0h29.05v37.19h-29.05V86.89zm0-5.15V46.01h29.05v35.73h-29.05zM38.3 46.01h15.17v35.73H30.59V53.73c0-4.25 3.47-7.72 7.71-7.72zm-7.71 40.88h22.89v37.19H30.59V86.89zm123.65 37.19V86.89h22.96v37.19h-22.96z"></path>
	<g fill="#A8AAAD">
		<path d="M169.49 43.99H38.3c-4.24 0-7.72 3.48-7.72 7.72v2.02c0-4.24 3.48-7.72 7.72-7.72h131.19c4.24 0 7.72 3.48 7.72 7.72v-2.02c0-4.24-3.41-7.72-7.72-7.72zM30.59 85.08h146.62v1.81H30.59zM30.59 127.42h146.62v1.81H30.59z"></path>
	</g>
	<path fill="#EAEAEA" d="M66.74 51.57H91.7v24.47H66.74z"></path>
	<path fill="#D1D2D1" d="M91.7 69.58H66.74v6.46H91.7z"></path>
	<path fill="#EAEAEA" d="M116.02 51.57h24.96v24.47h-24.96z"></path>
	<path fill="#D1D2D1" d="M140.97 69.58h-24.95v6.46h24.95z"></path>
	<path fill="#DC4242" d="M42.11 51.57h24.96v24.47H42.11z"></path><path fill="#C63434" d="M67.06 69.58H42.11v6.46h24.95z"></path>
	<g>
		<path fill="#DC4242" d="M91.38 51.57h24.96v24.47H91.38z"></path>
		<path fill="#C63434" d="M116.34 69.58H91.38v6.46h24.96z"></path>
	</g>
	<g>
		<path fill="#DC4242" d="M140.65 51.57h24.96v24.47h-24.96z"></path>
		<path fill="#C63434" d="M165.61 69.58h-24.96v6.46h24.96z"></path>
	</g>
	<g>
		<path fill="#E6D24C" d="M33.01 57.2c0 .35-.28.7-.7.7H23.7c-.35 0-.7-.28-.7-.7V45.1c0-.35.28-.7.7-.7h8.62c.35 0 .7.28.7.7v12.1z"></path>
		<path fill="#F8E85C" d="M33.01 55.88c0 .35-.28.7-.7.7H23.7c-.35 0-.7-.28-.7-.7v-12.1c0-.35.28-.7.7-.7h8.62c.35 0 .7.28.7.7v12.1z"></path>
	</g>
	<g>
		<path fill="#C63434" d="M28.01 25.5c-5.7 0-10.29 4.66-10.29 10.36s4.59 10.29 10.29 10.29S38.3 41.56 38.3 35.86 33.71 25.5 28.01 25.5z"></path>
		<path fill="#DC4242" d="M28.01 28.28c-4.1 0-7.51 3.41-7.51 7.58 0 4.1 3.41 7.51 7.51 7.44 4.1 0 7.51-3.34 7.51-7.51-.01-4.1-3.34-7.51-7.51-7.51z"></path>
	</g>
</svg>