<?xml version="1.0" encoding="UTF-8" standalone="yes"?>
<svg viewBox="0 0 512 512" version="1.2" baseProfile="tiny-ps" xmlns="http://www.w3.org/2000/svg" preserveAspectRatio="xMidYMid meet" xml:space="preserve">
  <title>Rong Bao</title>
  <path fill="#59bec7" d="M149 95.5L202.5 42L256 95.5L202.5 149ZM309.5 42L363 95.5L309.5 149L256 95.5ZM363 416.5L309.5 470L256 416.5L309.5 363ZM202.5 470L149 416.5L202.5 363L256 416.5ZM42 202.5L95.5 149L149 202.5L95.5 256ZM416.5 149L470 202.5L416.5 256L363 202.5ZM470 309.5L416.5 363L363 309.5L416.5 256ZM95.5 363L42 309.5L95.5 256L149 309.5ZM59.8 95.5a35.7,35.7 0 1,1 71.3,0a35.7,35.7 0 1,1 -71.3,0M380.8 95.5a35.7,35.7 0 1,1 71.3,0a35.7,35.7 0 1,1 -71.3,0M380.8 416.5a35.7,35.7 0 1,1 71.3,0a35.7,35.7 0 1,1 -71.3,0M59.8 416.5a35.7,35.7 0 1,1 71.3,0a35.7,35.7 0 1,1 -71.3,0"/>
  <path fill="#464646" d="M256 202.5L256 256L202.5 256ZM309.5 256L256 256L256 202.5ZM256 309.5L256 256L309.5 256ZM202.5 256L256 256L256 309.5Z"/>
</svg>
